<svg width="357" height="140" viewBox="0 0 357 140" fill="none" xmlns="http://www.w3.org/2000/svg">
<g clip-path="url(#clip0_101_3)">
<path d="M141.148 3.50999H161.148C166.748 3.50999 171.268 4.95 174.738 7.84C178.208 10.73 179.928 14.92 179.928 20.42C179.928 25.92 178.178 30.24 174.668 33.37C171.158 36.5 166.668 38.07 161.148 38.07H153.628V58.44H141.148V3.50999ZM153.668 28.08H157.198C159.61 28.1757 161.999 27.5863 164.088 26.38C165.888 25.2533 166.788 23.4 166.788 20.82C166.788 18.2 165.888 16.33 164.088 15.19C161.997 13.9872 159.609 13.4013 157.198 13.5H153.668V28.08Z" fill="white"/>
<path d="M185.461 58.44V24.28H197.241V29.17H197.461C197.58 28.9349 197.724 28.7136 197.891 28.51C198.293 28.0153 198.727 27.5477 199.191 27.11C199.844 26.4458 200.557 25.8432 201.321 25.31C202.228 24.7016 203.213 24.2205 204.251 23.88C205.426 23.4607 206.663 23.2443 207.911 23.24C209.197 23.2399 210.476 23.4217 211.711 23.78C212.662 24.0178 213.579 24.3739 214.441 24.84L215.371 25.38L210.441 35.38C208.686 34.0457 206.511 33.3856 204.311 33.52C203.028 33.4842 201.761 33.8062 200.651 34.45C199.721 34.9751 198.969 35.7654 198.491 36.72C198.132 37.4485 197.831 38.2041 197.591 38.98C197.437 39.4526 197.346 39.9436 197.321 40.44V58.44H185.461Z" fill="white"/>
<path d="M253.211 42.99H228.461C228.384 44.0022 228.557 45.0177 228.965 45.9472C229.374 46.8767 230.004 47.6915 230.801 48.32C232.249 49.4418 234.029 50.0504 235.861 50.05C237.404 50.1169 238.945 49.8579 240.381 49.29C241.821 48.5319 243.109 47.5149 244.181 46.29L252.701 50.55C249.148 56.5033 243.244 59.4766 234.991 59.47C232.538 59.5127 230.101 59.0661 227.823 58.156C225.544 57.246 223.47 55.8909 221.721 54.17C219.976 52.5324 218.584 50.5543 217.633 48.3579C216.682 46.1615 216.191 43.7935 216.191 41.4C216.191 39.0065 216.682 36.6385 217.633 34.4421C218.584 32.2457 219.976 30.2676 221.721 28.63C223.464 26.9043 225.533 25.5438 227.809 24.6286C230.084 23.7133 232.519 23.2616 234.971 23.3C240.391 23.3 244.798 24.8667 248.191 28C251.584 31.1333 253.281 35.6067 253.281 41.42C253.296 41.9443 253.273 42.4691 253.211 42.99V42.99ZM228.781 36.47H241.781C241.623 34.8875 240.873 33.4232 239.681 32.37C238.448 31.3824 236.899 30.8745 235.321 30.94C233.632 30.8525 231.97 31.3981 230.661 32.47C230.091 32.9724 229.629 33.5867 229.306 34.2748C228.982 34.9629 228.804 35.71 228.781 36.47V36.47Z" fill="white"/>
<path d="M273.66 23.28C275.609 23.2832 277.551 23.508 279.45 23.95C280.91 24.2542 282.336 24.6996 283.71 25.28L285.11 25.95L281.25 33.67C278.934 32.3466 276.327 31.615 273.66 31.54C272.697 31.4787 271.731 31.6254 270.83 31.97C270.545 32.1318 270.314 32.3732 270.165 32.6646C270.016 32.9559 269.955 33.2845 269.99 33.61C269.994 33.7887 270.018 33.9664 270.06 34.14C270.105 34.3271 270.198 34.4993 270.33 34.64C270.46 34.79 270.58 34.93 270.69 35.04C270.86 35.189 271.052 35.3104 271.26 35.4C271.464 35.5114 271.675 35.6116 271.89 35.7C272.05 35.77 272.3 35.87 272.66 36L273.46 36.3C273.627 36.3667 273.926 36.4667 274.36 36.6C274.688 36.7073 275.022 36.7974 275.36 36.87C276.594 37.2158 277.798 37.6606 278.96 38.2C280.096 38.7652 281.177 39.4348 282.19 40.2C283.311 41.036 284.213 42.1304 284.82 43.39C285.46 44.767 285.778 46.2717 285.75 47.79C285.75 55.5567 280.356 59.44 269.57 59.44C267.187 59.4547 264.82 59.0624 262.57 58.28C260.879 57.7518 259.275 56.9768 257.81 55.98L256.34 54.85L261.14 46.79C261.49 47.1 261.96 47.47 262.54 47.89C263.535 48.5495 264.582 49.128 265.67 49.62C266.879 50.2729 268.218 50.6487 269.59 50.72C272.037 50.72 273.26 49.8967 273.26 48.25C273.271 47.9 273.19 47.5533 273.025 47.2444C272.86 46.9355 272.617 46.6754 272.32 46.49C271.325 45.8932 270.265 45.4134 269.16 45.06C267.963 44.6542 266.796 44.1629 265.67 43.59C263.767 42.6573 262.052 41.3828 260.61 39.83C259.305 38.2803 258.637 36.2933 258.74 34.27C258.673 32.6941 259.005 31.1269 259.704 29.7129C260.403 28.299 261.447 27.084 262.74 26.18C265.44 24.2533 269.08 23.2867 273.66 23.28Z" fill="white"/>
<path d="M293.561 24.28V11.57H305.351V24.28H312.541V33.28H305.351V44.17C305.351 47.3167 306.237 48.89 308.011 48.89C308.489 48.8878 308.963 48.7997 309.411 48.63C309.805 48.4946 310.184 48.3169 310.541 48.1L310.941 47.83L313.871 57.35C311.222 58.8003 308.24 59.5345 305.221 59.48C303.248 59.5299 301.289 59.1334 299.491 58.32C298.005 57.6377 296.745 56.5447 295.861 55.17C295.056 53.897 294.461 52.5024 294.101 51.04C293.732 49.5245 293.551 47.9696 293.561 46.41V33.27H288.641V24.27L293.561 24.28Z" fill="white"/>
<path d="M321.1 54.38C319.247 52.7702 317.776 50.7687 316.792 48.5204C315.808 46.2721 315.336 43.8331 315.41 41.38C315.351 38.9067 315.853 36.4522 316.878 34.2007C317.903 31.9492 319.425 29.9591 321.33 28.38C325.417 24.9314 330.635 23.115 335.98 23.28C341.277 23.1245 346.442 24.9542 350.46 28.41C352.302 30.027 353.781 32.0162 354.798 34.2465C355.815 36.4767 356.348 38.8973 356.361 41.3485C356.374 43.7998 355.868 46.226 354.875 48.467C353.882 50.7081 352.425 52.7132 350.6 54.35C346.76 57.7367 341.887 59.4333 335.98 59.44C329.86 59.44 324.9 57.7533 321.1 54.38ZM330.22 35.6C329.458 36.3564 328.86 37.262 328.465 38.26C328.069 39.258 327.883 40.327 327.92 41.4C327.881 42.4586 328.056 43.5142 328.434 44.5038C328.812 45.4934 329.385 46.3968 330.12 47.16C330.881 47.9076 331.788 48.4911 332.784 48.8747C333.78 49.2582 334.844 49.4336 335.91 49.39C336.965 49.4243 338.016 49.2404 338.997 48.8498C339.978 48.4592 340.867 47.8703 341.61 47.12C343.055 45.546 343.852 43.4832 343.839 41.3462C343.826 39.2092 343.004 37.1563 341.54 35.6C340.012 34.1496 337.986 33.3409 335.88 33.3409C333.773 33.3409 331.747 34.1496 330.22 35.6Z" fill="white"/>
<path d="M186.559 122.5L183.959 89.94H183.629L172.379 122.17H164.919L153.669 89.94H153.339L150.739 122.5H138.219L143.149 67.57H156.459L168.649 99.26L180.839 67.57H194.149L199.079 122.5H186.559Z" fill="white"/>
<path d="M230.039 88.34H243.629L216.789 139.81H203.209L214.989 117.17L198.809 88.34H212.399L221.919 105.85L230.039 88.34Z" fill="white"/>
<path d="M281.459 92.57C284.549 96.1324 286.249 100.69 286.249 105.405C286.249 110.12 284.549 114.678 281.459 118.24C279.932 119.951 278.05 121.308 275.945 122.216C273.84 123.125 271.561 123.563 269.269 123.5C267.214 123.572 265.165 123.232 263.244 122.5C261.322 121.769 259.566 120.66 258.079 119.24V139.81H246.289V88.34H257.939V92.17H258.069C259.466 90.5913 261.191 89.338 263.125 88.4983C265.058 87.6587 267.152 87.253 269.259 87.31C271.552 87.2491 273.832 87.688 275.938 88.5963C278.045 89.5046 279.929 90.8606 281.459 92.57ZM271.459 111.17C272.623 110.056 273.424 108.617 273.757 107.041C274.09 105.464 273.939 103.824 273.324 102.335C272.709 100.846 271.659 99.5771 270.311 98.6947C268.963 97.8124 267.38 97.3576 265.769 97.39C264.716 97.3528 263.666 97.5344 262.687 97.9234C261.708 98.3124 260.82 98.9003 260.079 99.65C258.634 101.224 257.838 103.285 257.849 105.422C257.86 107.558 258.678 109.611 260.139 111.17C261.667 112.62 263.693 113.429 265.799 113.429C267.905 113.429 269.932 112.62 271.459 111.17Z" fill="white"/>
<path d="M326.32 107.05H301.55C301.474 108.061 301.647 109.075 302.053 110.004C302.459 110.933 303.086 111.749 303.88 112.38C305.334 113.497 307.116 114.105 308.95 114.11C310.494 114.174 312.034 113.911 313.47 113.34C314.91 112.582 316.198 111.565 317.27 110.34L325.79 114.61C322.243 120.55 316.34 123.523 308.08 123.53C305.63 123.57 303.197 123.121 300.922 122.211C298.647 121.301 296.576 119.948 294.83 118.23C293.084 116.593 291.693 114.616 290.742 112.42C289.791 110.225 289.301 107.858 289.301 105.465C289.301 103.072 289.791 100.705 290.742 98.5095C291.693 96.3139 293.084 94.3367 294.83 92.7C296.572 90.9742 298.642 89.6138 300.917 88.6986C303.192 87.7833 305.628 87.3316 308.08 87.37C313.5 87.37 317.906 88.9367 321.3 92.07C324.693 95.2033 326.39 99.6733 326.39 105.48C326.404 106.004 326.381 106.529 326.32 107.05V107.05ZM301.89 100.53H314.89C314.731 98.9475 313.981 97.4832 312.79 96.43C311.557 95.4424 310.008 94.9344 308.43 95C306.74 94.9125 305.079 95.458 303.77 96.53C303.198 97.0312 302.735 97.6453 302.412 98.3336C302.088 99.022 301.911 99.7697 301.89 100.53V100.53Z" fill="white"/>
<path fill-rule="evenodd" clip-rule="evenodd" d="M0.0195312 0.0200005H124.51V135.75H0.0195312V0.0200005ZM28.2891 21.78V41.1H51.2391V118.35H73.2391V41.1H96.1891V21.78H28.2891Z" fill="white"/>
</g>
<defs>
<clipPath id="clip0_101_3">
<rect width="356.36" height="139.82" fill="white"/>
</clipPath>
</defs>
</svg>
